 http://desibbrg.org/images/66952052392581364616.gif 
http://desibbrg.org/images/17657574800434437551.png 
http://desibbrg.org/images/71585743793849543350.png 
http://desibbrg.org/images/26795471077756774100.png 
http://desibbrg.org/images/51582000014161934223.png 
http://desibbrg.org/images/76756658554177531794.png 
http://desibbrg.org/images/05452819114986403212.png

Media Info - 
Video - 
Codec ID                                 : XVID
Codec ID/Hint                            : XviD
Duration                                 : 2h 2mn
Bit rate                                 : 662 Kbps
Width                                    : 688 pixels
Height                                   : 304 pixels
Display aspect ratio                     : 2.25:1
Frame rate                               : 29.970 fps
Color space                              : YUV
Chroma subsampling                       : 4:2:0
Bit depth                                : 8 bits
Scan type                                : Progressive
Compression mode                         : Lossy
Bits/(Pixel*Frame)                       : 0.106
Stream size                              : 582 MiB (83%)
Writing library                          : XviD 1.2.1 (UTC 2008-12-04)

Audio - 
Format                                   : AC-3
Format/Info                              : Audio Coding 3
Mode extension                           : CM (complete main)
Format settings, Endianness              : Big
Codec ID                                 : 2000
Duration                                 : 2h 2mn
Bit rate mode                            : Constant
Bit rate                                 : 128 Kbps
Channel(s)                               : 6 channels
Channel positions                        : Front: L C R, Side: L R, LFE
Sampling rate                            : 48.0 KHz
Bit depth                                : 16 bits
Compression mode                         : Lossy
Stream size                              : 113 MiB (16%)
Alignment                                : Aligned on interleaves
Interleave, duration                     : 64 ms (1.92 video frames)
Interleave, preload duration             : 192 ms

Ripper : K@rtik @ ExD

Seeding 24x7... Extreme Seeding...


Enjoy!